# xmcd
#
# Track frame offsets:
#	150
#	5980
#	17388
#	30750
#	45943
#	62488
#	73080
#	82905
#	95093
#	107738
#	118425
#	128958
#	139553
#	153903
#	167860
#	177670
#	187560
#	199940
#	215503
#	234648
#
# Disc length: 3338
#
# Revision: 2
# Processed by: cddbd v1.5.1PL0 Copyright (c) Steve Scherf et al.
# Submitted via: audiograbber 1.81.03
# Normalized: r1:DSETVAR1
#
DISCID=0c0d0814
DTITLE=Various Artist - The Allstar Country  Music  Disc  3
DYEAR=1900
DGENRE=Country
TTITLE0=Tammy Wynette - Welcome To My World
TTITLE1=Tammy Wynette - D.I.V.O.R.C.E.
TTITLE2=Tammy Wynette - Stand By Your
TTITLE3=Tammy Wynette - Cryin' In The Rain
TTITLE4=Faron Young - This Little Girl Of Mine
TTITLE5=Faron Young - Going Steady
TTITLE6=Faron Young - Hello Walls
TTITLE7=Faron Young - Four In The Morning
TTITLE8=Dolly Parton - Little Blossom
TTITLE9=Dolly Parton - It Wasn't God Who Made Honky Tonk Angels
TTITLE10=Leroy Van Dyke - Walk On By
TTITLE11=Leroy Van Dyke - The Auctioneer
TTITLE12=Freddy Fender - Jambalaya
TTITLE13=Freddy Fender - The Rains Came
TTITLE14=Freddy Fender - Before The Next Teardrop Falls
TTITLE15=Freddy Fender - Wasted Days And Wasted Nights
TTITLE16=Tanya Tucker - San Antonio Stroll
TTITLE17=Tanya Tucker - You Are So Beautiful
TTITLE18=Tanya Tucker - Delta Dawn
TTITLE19=Tanya Tucker - What's Your Mama's Name
EXTD=
EXTT0=
EXTT1=
EXTT2=
EXTT3=
EXTT4=
EXTT5=
EXTT6=
EXTT7=
EXTT8=
EXTT9=
EXTT10=
EXTT11=
EXTT12=
EXTT13=
EXTT14=
EXTT15=
EXTT16=
EXTT17=
EXTT18=
EXTT19=
PLAYORDER=
